<svg xmlns="http://www.w3.org/2000/svg" viewBox="0 0 512 512">
  <defs>
    <linearGradient id="bg" x1="0%" x2="100%" y1="0%" y2="100%">
      <stop offset="0%" stop-color="#5eead4" />
      <stop offset="100%" stop-color="#0f172a" />
    </linearGradient>
    <linearGradient id="coin" x1="0%" x2="100%" y1="0%" y2="100%">
      <stop offset="0%" stop-color="#f8fafc" />
      <stop offset="100%" stop-color="#bae6fd" />
    </linearGradient>
  </defs>
  <rect width="512" height="512" rx="120" fill="url(#bg)" />
  <path d="M117.333 170.667c0-23.454 19.013-42.667 42.667-42.667h192c23.654 0 42.667 19.213 42.667 42.667v170.666c0 23.654-19.013 42.667-42.667 42.667H160c-23.654 0-42.667-19.013-42.667-42.667V170.667Z" fill="#08111f" opacity=".92"/>
  <circle cx="202.667" cy="256" r="56" fill="url(#coin)" />
  <path d="M320 206.667h42.667M296 256h66.667M274.667 305.333h88" stroke="#5eead4" stroke-linecap="round" stroke-width="26.667"/>
  <path d="M202.667 221.333v69.334M229.333 238.667c0-11.046-11.94-20-26.666-20-14.727 0-26.667 8.954-26.667 20 0 11.045 11.94 20 26.667 20 14.726 0 26.666 8.954 26.666 20 0 11.045-11.94 20-26.666 20-14.727 0-26.667-8.955-26.667-20" fill="none" stroke="#0f172a" stroke-linecap="round" stroke-linejoin="round" stroke-width="16"/>
</svg>
